<svg width="100%" viewBox="0 0 800 36" xmlns="http://www.w3.org/2000/svg" role="img">
  <title>Databases and BaaS</title>
  <rect width="800" height="36" fill="#0d1117"/>
  <line x1="20" y1="11" x2="40" y2="11" stroke="#58A6FF" stroke-width="1.5" stroke-linecap="round"/>
  <line x1="20" y1="18" x2="40" y2="18" stroke="#58A6FF" stroke-width="1.5" stroke-linecap="round"/>
  <line x1="20" y1="25" x2="40" y2="25" stroke="#58A6FF" stroke-width="1.5" stroke-linecap="round"/>
  <text x="346" y="24" text-anchor="end" font-family="monospace" font-size="13" font-weight="400" fill="#8b949e">03.</text>
  <text x="356" y="24" text-anchor="start" font-family="monospace" font-size="14" font-weight="600" fill="#e6edf3">Databases &amp; BaaS</text>
  <g opacity="0.12">
    <circle cx="660" cy="10" r="1.5" fill="#58A6FF"/>
    <circle cx="674" cy="10" r="1.5" fill="#58A6FF"/>
    <circle cx="688" cy="10" r="1.5" fill="#58A6FF"/>
    <circle cx="702" cy="10" r="1.5" fill="#58A6FF"/>
    <circle cx="716" cy="10" r="1.5" fill="#58A6FF"/>
    <circle cx="730" cy="10" r="1.5" fill="#58A6FF"/>
    <circle cx="744" cy="10" r="1.5" fill="#58A6FF"/>
    <circle cx="758" cy="10" r="1.5" fill="#58A6FF"/>
    <circle cx="772" cy="10" r="1.5" fill="#58A6FF"/>
    <circle cx="786" cy="10" r="1.5" fill="#58A6FF"/>
    <circle cx="660" cy="26" r="1.5" fill="#58A6FF"/>
    <circle cx="674" cy="26" r="1.5" fill="#58A6FF"/>
    <circle cx="688" cy="26" r="1.5" fill="#58A6FF"/>
    <circle cx="702" cy="26" r="1.5" fill="#58A6FF"/>
    <circle cx="716" cy="26" r="1.5" fill="#58A6FF"/>
    <circle cx="730" cy="26" r="1.5" fill="#58A6FF"/>
    <circle cx="744" cy="26" r="1.5" fill="#58A6FF"/>
    <circle cx="758" cy="26" r="1.5" fill="#58A6FF"/>
    <circle cx="772" cy="26" r="1.5" fill="#58A6FF"/>
    <circle cx="786" cy="26" r="1.5" fill="#58A6FF"/>
  </g>
  <line x1="0" y1="35.5" x2="800" y2="35.5" stroke="#21262d" stroke-width="0.5"/>
</svg>
